<?xml version="1.0" encoding="UTF-8"?>
<svg id="Layer_1" data-name="Layer 1" xmlns="http://www.w3.org/2000/svg" viewBox="0 0 60.92 33.46">
  <defs>
    <style>
      .cls-1 {
        fill: #b3b3b3;
      }

      .cls-1, .cls-2 {
        stroke-width: 0px;
      }

      .cls-2 {
        fill: #fff;
      }
    </style>
  </defs>
  <path class="cls-1" d="M54.67,0H6.28C2.84,0,.03,2.8.03,6.25v20.97c0,3.44,2.8,6.24,6.25,6.24h48.39c3.45,0,6.25-2.8,6.25-6.24V6.25c0-3.45-2.8-6.25-6.25-6.25ZM57.99,27.22c0,1.83-1.49,3.32-3.32,3.32H6.28c-1.84,0-3.32-1.49-3.32-3.32V6.25c0-1.83,1.49-3.32,3.32-3.32h48.39c1.84,0,3.32,1.49,3.32,3.32v20.97Z"/>
  <path class="cls-2" d="M54.67,2.93H6.28c-1.84,0-3.32,1.49-3.32,3.32v20.97c0,1.83,1.49,3.32,3.32,3.32h48.39c1.84,0,3.32-1.49,3.32-3.32V6.25c0-1.83-1.49-3.32-3.32-3.32ZM30.48,29.3c-6.94,0-12.57-5.63-12.57-12.57s5.63-12.57,12.57-12.57,12.57,5.63,12.57,12.57-5.63,12.57-12.57,12.57Z"/>
</svg>