<?xml version="1.0" encoding="UTF-8"?>
<svg xmlns="http://www.w3.org/2000/svg" viewBox="0 0 60.92 99.11">
  <defs>
    <style>
      .cls-1, .cls-2, .cls-3 {
        stroke-width: 0px;
      }

      .cls-2 {
        fill: #b3b3b3;
      }

      .cls-3 {
        fill: #fff;
      }
    </style>
  </defs>
  <g id="Layer_2" data-name="Layer 2">
    <g>
      <rect class="cls-2" x="16.62" y="2.93" width="27.68" height="93.25"/>
      <path class="cls-3" d="M42.84,2.93c.81,0,1.46.65,1.46,1.46v90.33c0,.81-.65,1.46-1.46,1.46h-24.76c-.81,0-1.46-.65-1.46-1.46V4.39c0-.81.65-1.46,1.46-1.46h24.76M42.84,0h-24.76C15.66,0,13.69,1.97,13.69,4.39v90.33c0,2.42,1.97,4.39,4.39,4.39h24.76c2.42,0,4.39-1.97,4.39-4.39V4.39C47.23,1.97,45.26,0,42.84,0h0Z"/>
    </g>
  </g>
  <g id="Layer_1" data-name="Layer 1">
    <g>
      <path class="cls-1" d="M27.02,46.37c-.47,0-.89-.09-1.27-.26-.37-.17-.67-.42-.89-.75-.22-.33-.34-.73-.37-1.19h1.53c.04.24.13.43.27.56.14.13.33.2.56.2.28,0,.5-.08.65-.24.15-.16.23-.38.23-.66v-.18c0-.3-.06-.53-.19-.69-.12-.16-.3-.24-.53-.24h-.67v-1.43h.67c.19,0,.33-.07.44-.21.1-.14.15-.34.15-.6v-.14c0-.24-.06-.43-.17-.56s-.27-.2-.48-.2-.38.08-.52.23c-.14.15-.24.37-.29.64h-1.53c.06-.73.32-1.3.76-1.71.44-.4.99-.61,1.62-.61.7,0,1.23.18,1.62.53s.57.86.57,1.51v.24c0,.36-.09.68-.28.95-.18.27-.45.47-.78.61.38.09.67.29.88.6.21.31.31.71.31,1.19v.24c0,.69-.2,1.22-.61,1.6-.4.38-.97.57-1.71.57Z"/>
      <path class="cls-1" d="M30.46,57.59c-6.35,0-11.52-5.17-11.52-11.52s5.17-11.52,11.52-11.52,11.52,5.17,11.52,11.52-5.17,11.52-11.52,11.52ZM30.46,35.53c-5.82,0-10.55,4.73-10.55,10.55s4.73,10.54,10.55,10.54,10.54-4.73,10.54-10.54-4.73-10.55-10.54-10.55Z"/>
      <path class="cls-1" d="M31.19,52.1v-1.36l2.42-5.29h1.68l-2.36,5.23h3.53v1.43h-5.28ZM34.37,53.32v-4.63h1.48v4.63h-1.48Z"/>
      <rect class="cls-1" x="23.8" y="45.06" width="13.93" height="1.3" transform="translate(-24.25 48.88) rotate(-59.35)"/>
    </g>
    <g>
      <path class="cls-1" d="M30.46,91.92c-6.35,0-11.52-5.17-11.52-11.52s5.17-11.52,11.52-11.52,11.52,5.17,11.52,11.52-5.17,11.52-11.52,11.52ZM30.46,69.85c-5.82,0-10.55,4.73-10.55,10.55s4.73,10.54,10.55,10.54,10.54-4.73,10.54-10.54-4.73-10.55-10.54-10.55Z"/>
      <path class="cls-1" d="M32.98,70.85v7.04h-1.33v-5.48l-.86.32v-1.41l1.05-.47h1.13Z"/>
      <path class="cls-1" d="M27.38,73.67v13.64h-2.57v-10.62l-1.66.63v-2.73l2.04-.92h2.19Z"/>
      <path class="cls-1" d="M33.29,87.74v-1.2l2.42-3.18c.11-.14.19-.29.25-.44.06-.15.09-.29.09-.42h0c0-.2-.06-.35-.18-.45-.12-.1-.3-.16-.52-.16s-.39.07-.53.22c-.14.14-.22.35-.25.61h0s-1.36,0-1.36,0h0c.04-.67.26-1.19.64-1.56.38-.37.88-.55,1.49-.55.66,0,1.17.16,1.54.48.36.32.54.77.54,1.36h0c0,.32-.06.64-.17.96-.11.31-.27.6-.47.85l-1.73,2.19h2.41v1.28h-4.16Z"/>
      <rect class="cls-1" x="28.55" y="78.46" width="10.38" height="1.3" transform="translate(-45.27 45.14) rotate(-43.63)"/>
    </g>
    <g>
      <path class="cls-1" d="M30.46,28.8c-6.35,0-11.52-5.17-11.52-11.52s5.17-11.52,11.52-11.52,11.52,5.17,11.52,11.52-5.17,11.52-11.52,11.52ZM30.46,6.73c-5.82,0-10.55,4.73-10.55,10.55s4.73,10.54,10.55,10.54,10.54-4.73,10.54-10.54-4.73-10.55-10.54-10.55Z"/>
      <path class="cls-1" d="M27.59,9.63v7.87h-1.48v-6.13l-.96.36v-1.58l1.17-.53h1.27Z"/>
      <path class="cls-1" d="M32.16,24.52v-1.34l2.7-3.55c.12-.16.22-.32.28-.49.07-.17.1-.32.1-.47h0c0-.22-.07-.39-.21-.5-.14-.12-.33-.17-.58-.17s-.44.08-.59.24c-.15.16-.25.39-.28.68h0s-1.52,0-1.52,0h0c.05-.75.29-1.33.72-1.74.43-.41.98-.62,1.66-.62.74,0,1.31.18,1.72.54.41.36.61.86.61,1.52h0c0,.36-.06.72-.19,1.07-.12.35-.3.67-.52.96l-1.94,2.45h2.69v1.43h-4.65Z"/>
      <rect class="cls-1" x="23.47" y="16.27" width="13.93" height="1.3" transform="translate(.36 34.47) rotate(-59.34)"/>
    </g>
  </g>
</svg>