<?xml version="1.0" encoding="UTF-8"?>
<svg id="Layer_1" data-name="Layer 1" xmlns="http://www.w3.org/2000/svg" viewBox="0 0 35.54 32.67">
  <defs>
    <style>
      .cls-1, .cls-2, .cls-3 {
        stroke-width: 0px;
      }

      .cls-2 {
        fill: #b3b3b3;
      }

      .cls-3 {
        fill: #fff;
      }
    </style>
  </defs>
  <g>
    <path class="cls-2" d="M14.1,2.03l-.86.25c-2.44.72-4.62,2.12-6.28,4.04l-.59.68c-1.66,1.92-2.74,4.28-3.1,6.79l-.13.89c-.36,2.51,0,5.08,1.06,7.39l.37.82c1.06,2.31,2.75,4.27,4.89,5.64l.76.49c2.14,1.37,4.62,2.1,7.16,2.1h.9c2.54,0,5.03-.73,7.16-2.1l.76-.49c2.14-1.37,3.83-3.33,4.89-5.64l.37-.82c1.06-2.31,1.42-4.88,1.06-7.39l-.13-.89c-.36-2.51-1.44-4.87-3.1-6.79l-.59-.68c-1.66-1.92-3.84-3.32-6.28-4.04l-.86-.25c-2.44-.72-5.03-.72-7.47,0Z"/>
    <path class="cls-3" d="M22.99,2.99c1.58,0,3.03.84,3.82,2.2l5.16,8.93c.79,1.36.79,3.04,0,4.41l-5.16,8.93c-.79,1.36-2.24,2.2-3.82,2.2h-10.31c-1.58,0-3.03-.84-3.82-2.2l-5.16-8.93c-.79-1.36-.79-3.04,0-4.41l5.16-8.93c.79-1.36,2.24-2.2,3.82-2.2h10.31M22.99,0h-10.31c-2.64,0-5.09,1.42-6.41,3.7L1.1,12.63c-1.32,2.28-1.32,5.12,0,7.4l5.16,8.93c1.32,2.28,3.77,3.7,6.41,3.7h10.31c2.64,0,5.09-1.42,6.41-3.7l5.16-8.93c1.32-2.28,1.32-5.12,0-7.4l-5.16-8.93c-1.32-2.28-3.77-3.7-6.41-3.7h0Z"/>
  </g>
  <g>
    <path class="cls-1" d="M17.83,27.83c-6.35,0-11.52-5.17-11.52-11.52s5.17-11.52,11.52-11.52,11.52,5.17,11.52,11.52-5.17,11.52-11.52,11.52ZM17.83,5.76c-5.82,0-10.55,4.73-10.55,10.55s4.73,10.54,10.55,10.54,10.54-4.73,10.54-10.54-4.73-10.55-10.54-10.55Z"/>
    <path class="cls-1" d="M14.96,8.65v7.87h-1.48v-6.13l-.96.36v-1.58l1.17-.53h1.27Z"/>
    <path class="cls-1" d="M19.53,23.54v-1.34l2.7-3.55c.12-.16.22-.32.28-.49.07-.17.1-.32.1-.47h0c0-.22-.07-.39-.21-.5-.14-.12-.33-.17-.58-.17s-.44.08-.59.24c-.15.16-.25.39-.28.68h0s-1.52,0-1.52,0h0c.05-.75.29-1.33.72-1.74.43-.41.98-.62,1.66-.62.74,0,1.31.18,1.72.54.41.36.61.86.61,1.52h0c0,.36-.06.72-.19,1.07-.12.35-.3.67-.52.96l-1.94,2.45h2.69v1.43h-4.65Z"/>
    <rect class="cls-1" x="10.84" y="15.29" width="13.93" height="1.3" transform="translate(-4.99 23.13) rotate(-59.34)"/>
  </g>
</svg>