<?xml version="1.0" encoding="UTF-8"?>
<svg id="Layer_1" data-name="Layer 1" xmlns="http://www.w3.org/2000/svg" viewBox="0 0 35.54 32.67">
  <defs>
    <style>
      .cls-1, .cls-2, .cls-3 {
        stroke-width: 0px;
      }

      .cls-2 {
        fill: #b3b3b3;
      }

      .cls-3 {
        fill: #fff;
      }
    </style>
  </defs>
  <g>
    <path class="cls-2" d="M14.1,2.03l-.86.25c-2.44.72-4.62,2.12-6.28,4.04l-.59.68c-1.66,1.92-2.74,4.28-3.1,6.79l-.13.89c-.36,2.51,0,5.08,1.06,7.39l.37.82c1.06,2.31,2.75,4.27,4.89,5.64l.76.49c2.14,1.37,4.62,2.1,7.16,2.1h.9c2.54,0,5.03-.73,7.16-2.1l.76-.49c2.14-1.37,3.83-3.33,4.89-5.64l.37-.82c1.06-2.31,1.42-4.88,1.06-7.39l-.13-.89c-.36-2.51-1.44-4.87-3.1-6.79l-.59-.68c-1.66-1.92-3.84-3.32-6.28-4.04l-.86-.25c-2.44-.72-5.03-.72-7.47,0Z"/>
    <path class="cls-3" d="M22.99,2.99c1.58,0,3.03.84,3.82,2.2l5.16,8.93c.79,1.36.79,3.04,0,4.41l-5.16,8.93c-.79,1.36-2.24,2.2-3.82,2.2h-10.31c-1.58,0-3.03-.84-3.82-2.2l-5.16-8.93c-.79-1.36-.79-3.04,0-4.41l5.16-8.93c.79-1.36,2.24-2.2,3.82-2.2h10.31M22.99,0h-10.31c-2.64,0-5.09,1.42-6.41,3.7L1.1,12.63c-1.32,2.28-1.32,5.12,0,7.4l5.16,8.93c1.32,2.28,3.77,3.7,6.41,3.7h10.31c2.64,0,5.09-1.42,6.41-3.7l5.16-8.93c1.32-2.28,1.32-5.12,0-7.4l-5.16-8.93c-1.32-2.28-3.77-3.7-6.41-3.7h0Z"/>
  </g>
  <g>
    <path class="cls-1" d="M14.39,16.6c-.47,0-.89-.09-1.27-.26-.37-.17-.67-.42-.89-.75-.22-.33-.34-.73-.37-1.19h1.53c.04.24.13.43.27.56.14.13.33.2.56.2.28,0,.5-.08.65-.24.15-.16.23-.38.23-.66v-.18c0-.3-.06-.53-.19-.69-.12-.16-.3-.24-.53-.24h-.67v-1.43h.67c.19,0,.33-.07.44-.21.1-.14.15-.34.15-.6v-.14c0-.24-.06-.43-.17-.56s-.27-.2-.48-.2-.38.08-.52.23c-.14.15-.24.37-.29.64h-1.53c.06-.73.32-1.3.76-1.71.44-.4.99-.61,1.62-.61.7,0,1.23.18,1.62.53s.57.86.57,1.51v.24c0,.36-.09.68-.28.95-.18.27-.45.47-.78.61.38.09.67.29.88.6.21.31.31.71.31,1.19v.24c0,.69-.2,1.22-.61,1.6-.4.38-.97.57-1.71.57Z"/>
    <path class="cls-1" d="M17.83,27.83c-6.35,0-11.52-5.17-11.52-11.52s5.17-11.52,11.52-11.52,11.52,5.17,11.52,11.52-5.17,11.52-11.52,11.52ZM17.83,5.76c-5.82,0-10.55,4.73-10.55,10.55s4.73,10.54,10.55,10.54,10.54-4.73,10.54-10.54-4.73-10.55-10.54-10.55Z"/>
    <path class="cls-1" d="M18.56,22.34v-1.36l2.42-5.29h1.68l-2.36,5.23h3.53v1.43h-5.28ZM21.74,23.55v-4.63h1.48v4.63h-1.48Z"/>
    <rect class="cls-1" x="11.17" y="15.29" width="13.93" height="1.3" transform="translate(-4.83 23.42) rotate(-59.35)"/>
  </g>
</svg>