<?xml version="1.0" encoding="UTF-8"?>
<svg id="Layer_1" data-name="Layer 1" xmlns="http://www.w3.org/2000/svg" viewBox="0 0 35.54 32.67">
  <defs>
    <style>
      .cls-1, .cls-2, .cls-3 {
        stroke-width: 0px;
      }

      .cls-2 {
        fill: #b3b3b3;
      }

      .cls-3 {
        fill: #fff;
      }
    </style>
  </defs>
  <g>
    <path class="cls-2" d="M14.1,2.03l-.86.25c-2.44.72-4.62,2.12-6.28,4.04l-.59.68c-1.66,1.92-2.74,4.28-3.1,6.79l-.13.89c-.36,2.51,0,5.08,1.06,7.39l.37.82c1.06,2.31,2.75,4.27,4.89,5.64l.76.49c2.14,1.37,4.62,2.1,7.16,2.1h.9c2.54,0,5.03-.73,7.16-2.1l.76-.49c2.14-1.37,3.83-3.33,4.89-5.64l.37-.82c1.06-2.31,1.42-4.88,1.06-7.39l-.13-.89c-.36-2.51-1.44-4.87-3.1-6.79l-.59-.68c-1.66-1.92-3.84-3.32-6.28-4.04l-.86-.25c-2.44-.72-5.03-.72-7.47,0Z"/>
    <path class="cls-3" d="M22.99,2.99c1.58,0,3.03.84,3.82,2.2l5.16,8.93c.79,1.36.79,3.04,0,4.41l-5.16,8.93c-.79,1.36-2.24,2.2-3.82,2.2h-10.31c-1.58,0-3.03-.84-3.82-2.2l-5.16-8.93c-.79-1.36-.79-3.04,0-4.41l5.16-8.93c.79-1.36,2.24-2.2,3.82-2.2h10.31M22.99,0h-10.31c-2.64,0-5.09,1.42-6.41,3.7L1.1,12.63c-1.32,2.28-1.32,5.12,0,7.4l5.16,8.93c1.32,2.28,3.77,3.7,6.41,3.7h10.31c2.64,0,5.09-1.42,6.41-3.7l5.16-8.93c1.32-2.28,1.32-5.12,0-7.4l-5.16-8.93c-1.32-2.28-3.77-3.7-6.41-3.7h0Z"/>
  </g>
  <g>
    <path class="cls-1" d="M17.94,27.69c-6.41,0-11.62-5.21-11.62-11.62s5.21-11.62,11.62-11.62,11.62,5.21,11.62,11.62-5.21,11.62-11.62,11.62ZM17.94,5.46c-5.86,0-10.62,4.76-10.62,10.62s4.76,10.62,10.62,10.62,10.62-4.76,10.62-10.62-4.76-10.62-10.62-10.62Z"/>
    <path class="cls-1" d="M20.47,6.46v7.09h-1.34v-5.52l-.86.33v-1.42l1.06-.48h1.14Z"/>
    <path class="cls-1" d="M14.83,9.3v13.74h-2.59v-10.7l-1.67.63v-2.75l2.05-.93h2.21Z"/>
    <path class="cls-1" d="M20.79,23.47v-1.21l2.43-3.2c.11-.14.2-.29.26-.44.06-.15.09-.29.09-.42h0c0-.2-.06-.35-.19-.45-.12-.1-.3-.16-.53-.16s-.4.07-.53.22c-.14.15-.22.35-.25.62h0s-1.37,0-1.37,0h0c.04-.68.26-1.2.65-1.57.39-.37.89-.56,1.5-.56.67,0,1.18.16,1.55.48.37.32.55.78.55,1.37h0c0,.33-.06.65-.17.96-.11.32-.27.6-.47.86l-1.75,2.21h2.42v1.29h-4.2Z"/>
    <rect class="cls-1" x="16.01" y="14.11" width="10.46" height="1.33" transform="translate(-4.33 18.74) rotate(-43.63)"/>
  </g>
</svg>