<?xml version="1.0" encoding="utf-8"?>
<!-- Generator: Adobe Illustrator 28.2.0, SVG Export Plug-In . SVG Version: 6.00 Build 0)  -->
<svg version="1.1" id="Layer_1" xmlns="http://www.w3.org/2000/svg" xmlns:xlink="http://www.w3.org/1999/xlink" x="0px" y="0px"
	 viewBox="0 0 31.82 11.33" style="enable-background:new 0 0 31.82 11.33;" xml:space="preserve">
<style type="text/css">
	.st0{fill:#004C97;}
</style>
<g>
	<path class="st0" d="M31.82,6.15c0,0.84-0.85,1.63-2.33,2.3L29.62,8c1.02-0.55,1.59-1.18,1.59-1.84c0-0.44-0.26-0.87-0.73-1.27
		l0.12-0.43C31.39,4.98,31.82,5.55,31.82,6.15z"/>
	<path class="st0" d="M24.44,2.43l-0.03,0.1c-0.09-0.06-0.2-0.1-0.32-0.1h-0.86C23.12,2.44,23,2.47,22.9,2.52
		c-0.14-0.02-0.28-0.03-0.41-0.05c0,0,0,0,0,0c-0.06-0.02-0.12-0.03-0.19-0.03h-0.09c-1.6-0.18-3.34-0.27-5.16-0.27
		c-1.37,0-2.7,0.05-3.95,0.16l0.12-0.45c0-0.02,0.01-0.03,0.01-0.05c0.9-0.04,1.82-0.07,2.76-0.07C19.1,1.75,21.99,2,24.44,2.43z"/>
	<path class="st0" d="M25.38,9.7c-2.63,0.54-5.87,0.86-9.39,0.86c-3.6,0-6.92-0.33-9.58-0.9h3.84c2.02,0.31,4.33,0.49,6.8,0.49
		c2.35,0,4.58-0.16,6.53-0.45H25.38z"/>
	<path class="st0" d="M2.9,6.15c0,0.46,0.28,0.9,0.78,1.31L3.44,8.38C3.4,8.53,3.38,8.68,3.4,8.82C1.37,8.08,0.17,7.15,0.17,6.15
		c0-1.22,1.79-2.33,4.69-3.12L4.52,4.3C3.48,4.85,2.9,5.48,2.9,6.15z"/>
	<path class="st0" d="M19.66,3.06c0.04-0.14,0.17-0.24,0.32-0.24h2.31c0.1-0.01,0.19,0.07,0.19,0.17c0,0.03,0,0.05-0.01,0.07
		l-0.12,0.43c-0.03,0.13-0.01,0.22,0.06,0.18c0.1-0.07,0.19-0.17,0.25-0.28l0.2-0.35c0.08-0.13,0.22-0.21,0.38-0.22h0.83
		c0.1-0.01,0.19,0.07,0.19,0.17c0,0.03,0,0.05-0.01,0.07l-0.44,1.62c-0.04,0.14-0.17,0.24-0.31,0.24h-0.79
		c-0.17,0-0.33,0.01-0.5,0.03c0,0-0.28,0.04-0.38,0.4c-0.09,0.35-1.01,3.72-1.01,3.72C20.8,9.2,20.67,9.3,20.52,9.31h-2.31
		c-0.1,0.01-0.19-0.07-0.19-0.17c0-0.03,0-0.05,0.01-0.07L19.66,3.06z"/>
	<path class="st0" d="M18.2,2.9c-0.33-0.18-1.77-0.24-1.77-0.24c-0.14-0.01-0.36-0.01-0.5,0c0,0-0.54,0.02-1.17,0.09
		c-0.31,0.04-0.61,0.1-0.91,0.18C13.37,3.03,13,3.6,13,3.6c-0.09,0.15-0.17,0.28-0.24,0.44L12.72,4.1
		c-0.06,0.13-0.15,0.33-0.19,0.47c0,0-0.29,0.83-0.78,2.77c-0.47,1.83,1.07,1.92,1.07,1.92c0.14,0.01,0.36,0.01,0.5,0.01h3.86
		c0.15-0.01,0.27-0.1,0.31-0.24l0.42-1.57c0.01-0.03,0.01-0.05,0.01-0.08c-0.01-0.1-0.1-0.17-0.19-0.17c0,0-2,0.03-2.58,0
		c-0.04,0-0.08-0.01-0.1-0.01c-0.05-0.01-0.08-0.01-0.12-0.02c-0.06-0.04-0.11-0.13-0.09-0.3c0,0,0,0,0,0
		c0.03-0.09,0.06-0.18,0.09-0.27c0.04-0.14,0.17-0.23,0.31-0.24H18c0.15-0.01,0.28-0.1,0.35-0.23c0,0,0.17-0.4,0.42-1.67
		C18.99,3.34,18.43,3.03,18.2,2.9z M15.57,4.61L15.42,5.4c-0.03,0.13-0.09,0.23-0.15,0.22c-0.06-0.01-0.08-0.13-0.06-0.26l0.16-0.78
		c0.03-0.13,0.1-0.23,0.15-0.22C15.58,4.35,15.6,4.48,15.57,4.61z"/>
	<path class="st0" d="M29.62,9c0.05-0.01,0.1-0.01,0.16-0.01c0.07-0.01,0.13,0.01,0.19,0.06c0.03,0.03,0.05,0.08,0.05,0.12
		c0,0.08-0.05,0.14-0.12,0.16l0,0c0.05,0.03,0.08,0.08,0.09,0.13c0.01,0.06,0.03,0.12,0.05,0.17h-0.08
		c-0.02-0.05-0.03-0.1-0.04-0.15c-0.02-0.09-0.06-0.12-0.13-0.13H29.7v0.28h-0.08L29.62,9L29.62,9z M29.69,9.29h0.08
		c0.09,0,0.15-0.05,0.15-0.12s-0.06-0.12-0.15-0.12c-0.03,0-0.06,0-0.08,0.01V9.29z"/>
	<path class="st0" d="M29.26,9.31c0-0.3,0.24-0.54,0.54-0.54l0,0c0.3,0,0.54,0.24,0.54,0.54l0,0l0,0c0,0.3-0.24,0.54-0.54,0.54l0,0
		C29.51,9.86,29.26,9.61,29.26,9.31z M29.33,9.31c0,0.26,0.21,0.47,0.47,0.47l0,0c0.26,0,0.47-0.21,0.47-0.47l0,0
		c0-0.26-0.21-0.47-0.47-0.47l0,0C29.55,8.85,29.33,9.06,29.33,9.31z"/>
	<path class="st0" d="M4.28,9.27c-0.38,0-0.59-0.36-0.48-0.79l1.78-6.71C5.71,1.33,6.1,0.98,6.48,0.98h5.89
		c0.38,0,0.59,0.36,0.48,0.79l-0.5,1.91c-0.04,0.13-0.12,0.2-0.23,0.2H9.03c-0.09,0-0.18-0.09-0.14-0.2l0.22-0.83
		c0.04-0.13-0.03-0.21-0.13-0.21c-0.12,0-0.2,0.07-0.24,0.21L7.53,7.41c-0.04,0.11,0.03,0.2,0.13,0.2c0.12,0,0.2-0.07,0.24-0.2
		l0.77-2.9C8.71,4.37,8.79,4.3,8.9,4.3h3.09c0.11,0,0.15,0.11,0.14,0.21l-1.21,4.56c-0.04,0.13-0.11,0.2-0.22,0.2H4.28z"/>
	<path class="st0" d="M29.88,5.64C29.8,5.94,29.64,6.17,29.4,6.3c-0.06,0.04-0.1,0.07-0.11,0.13c-0.01,0.05-0.01,0.09,0.04,0.13
		c0.16,0.13,0.2,0.35,0.11,0.66l-0.52,1.9c-0.04,0.13-0.11,0.2-0.22,0.2h-2.42c-0.11,0-0.16-0.09-0.14-0.2l0.46-1.65
		c0.04-0.13-0.03-0.21-0.12-0.21c-0.12,0-0.2,0.07-0.24,0.21l-0.46,1.65c-0.04,0.13-0.11,0.2-0.21,0.2h-2.45
		c-0.09,0-0.14-0.09-0.12-0.2l2.17-7.83c0.04-0.14,0.12-0.21,0.22-0.21h2.44c0.11,0,0.16,0.11,0.12,0.21L26.8,5.4
		c-0.04,0.11,0.04,0.2,0.13,0.2c0.11,0,0.19-0.07,0.23-0.2l0.46-1.65c0.04-0.14,0.12-0.21,0.25-0.21h2.42
		c0.11,0,0.15,0.07,0.11,0.21L29.88,5.64z"/>
</g>
</svg>
