<?xml version="1.0" encoding="utf-8"?>
<!-- Generator: Adobe Illustrator 28.2.0, SVG Export Plug-In . SVG Version: 6.00 Build 0)  -->
<svg version="1.1" id="Layer_1" xmlns="http://www.w3.org/2000/svg" xmlns:xlink="http://www.w3.org/1999/xlink" x="0px" y="0px"
	 viewBox="0 0 112.16 23.22" style="enable-background:new 0 0 112.16 23.22;" xml:space="preserve">
<style type="text/css">
	.st0{fill:#FFFFFF;}
</style>
<path class="st0" d="M2.1,22.8c-0.84,0-1.52-0.58-1.52-1.29V1.71C0.58,1,1.26,0.42,2.1,0.42S3.62,1,3.62,1.71v19.8
	C3.62,22.22,2.94,22.8,2.1,22.8z"/>
<path class="st0" d="M74.1,22.8c-0.84,0-1.52-0.58-1.52-1.29V1.71c0-0.71,0.68-1.29,1.52-1.29S75.62,1,75.62,1.71v19.8
	C75.62,22.22,74.94,22.8,74.1,22.8z"/>
<path class="st0" d="M92.1,22.8c-0.84,0-1.52-0.58-1.52-1.29v-7.66c0-0.71,0.68-1.29,1.52-1.29s1.52,0.58,1.52,1.29v7.66
	C93.62,22.22,92.94,22.8,92.1,22.8z"/>
<path class="st0" d="M56.1,22.8c-0.84,0-1.52-0.58-1.52-1.29v-7.66c0-0.71,0.68-1.29,1.52-1.29c0.84,0,1.52,0.58,1.52,1.29v7.66
	C57.62,22.22,56.94,22.8,56.1,22.8z"/>
<path class="st0" d="M20.1,22.8c-0.84,0-1.52-0.58-1.52-1.29v-7.66c0-0.71,0.68-1.29,1.52-1.29s1.52,0.58,1.52,1.29v7.66
	C21.62,22.22,20.94,22.8,20.1,22.8z"/>
<path class="st0" d="M81.58,22.8c-0.84,0-1.52-0.58-1.52-1.29v-3.77c0-0.71,0.68-1.29,1.52-1.29s1.52,0.58,1.52,1.29v3.77
	C83.1,22.22,82.42,22.8,81.58,22.8z"/>
<path class="st0" d="M47.1,22.8c-0.84,0-1.52-0.58-1.52-1.29v-3.77c0-0.71,0.68-1.29,1.52-1.29c0.84,0,1.52,0.58,1.52,1.29v3.77
	C48.62,22.22,47.94,22.8,47.1,22.8z"/>
<path class="st0" d="M11.1,22.8c-0.84,0-1.52-0.58-1.52-1.29v-3.77c0-0.71,0.68-1.29,1.52-1.29c0.84,0,1.52,0.58,1.52,1.29v3.77
	C12.62,22.22,11.94,22.8,11.1,22.8z"/>
<path class="st0" d="M100.42,22.8c-0.84,0-1.52-0.58-1.52-1.29v-3.77c0-0.71,0.68-1.29,1.52-1.29c0.84,0,1.52,0.58,1.52,1.29v3.77
	C101.94,22.22,101.26,22.8,100.42,22.8z"/>
<path class="st0" d="M65.1,22.8c-0.84,0-1.52-0.58-1.52-1.29v-3.77c0-0.71,0.68-1.29,1.52-1.29s1.52,0.58,1.52,1.29v3.77
	C66.62,22.22,65.94,22.8,65.1,22.8z"/>
<path class="st0" d="M29.1,22.8c-0.84,0-1.52-0.58-1.52-1.29v-3.77c0-0.71,0.68-1.29,1.52-1.29s1.52,0.58,1.52,1.29v3.77
	C30.62,22.22,29.94,22.8,29.1,22.8z"/>
<path class="st0" d="M110.21,22.8c-0.84,0-1.52-0.58-1.52-1.29V1.71c0-0.71,0.68-1.29,1.52-1.29s1.52,0.58,1.52,1.29v19.8
	C111.73,22.22,111.05,22.8,110.21,22.8z"/>
<path class="st0" d="M38.1,22.8c-0.84,0-1.52-0.58-1.52-1.29V1.71c0-0.71,0.68-1.29,1.52-1.29c0.84,0,1.52,0.58,1.52,1.29v19.8
	C39.62,22.22,38.94,22.8,38.1,22.8z"/>
</svg>
