<?xml version="1.0" encoding="UTF-8"?>
<svg id="Layer_1" data-name="Layer 1" xmlns="http://www.w3.org/2000/svg" viewBox="0 0 35.43 49.07">
  <defs>
    <style>
      .cls-1 {
        fill: #004c97;
      }

      .cls-1, .cls-2, .cls-3, .cls-4 {
        stroke-width: 0px;
      }

      .cls-3 {
        fill: #b3b3b3;
      }

      .cls-4 {
        fill: #fff;
      }
    </style>
  </defs>
  <g>
    <path class="cls-1" d="M32.48,7.59v33.77c0,.39-.15.76-.43,1.04l-3.31,3.31c-.28.28-.65.43-1.04.43H7.72c-.39,0-.76-.16-1.04-.44l-3.31-3.31c-.27-.27-.43-.65-.43-1.04V7.58c0-.39.15-.76.43-1.04l3.17-3.17c.28-.28.65-.43,1.04-.43h20.26c.39,0,.76.16,1.04.44l3.17,3.17c.27.27.43.65.43,1.04Z"/>
    <path class="cls-4" d="M7.58,2.94h20.26c.39,0,.76.16,1.04.44l3.17,3.17c.27.27.43.65.43,1.04v33.77c0,.39-.15.76-.43,1.04l-3.31,3.31c-.27.27-.65.43-1.04.43H7.72c-.39,0-.76-.16-1.04-.44l-3.31-3.31c-.27-.27-.43-.65-.43-1.04V7.58c0-.39.15-.76.43-1.04l3.17-3.17c.27-.27.65-.43,1.04-.43M7.59,0h0c-1.18,0-2.29.46-3.12,1.29l-3.17,3.17c-.83.83-1.29,1.94-1.29,3.12v33.77c0,1.18.46,2.29,1.29,3.12l3.31,3.31c.83.83,1.94,1.29,3.12,1.29h19.99c1.18,0,2.29-.45,3.12-1.28l3.31-3.31c.83-.83,1.29-1.94,1.29-3.12V7.59c0-1.18-.46-2.29-1.29-3.12l-3.17-3.17C30.13.46,29.02,0,27.85,0H7.59Z"/>
  </g>
  <rect class="cls-3" x="2.94" y="10.11" width="29.54" height="28.86"/>
  <path class="cls-2" d="M19.94,14.6v18.94h-3.57v-14.75l-2.31.87v-3.79l2.83-1.28h3.05Z"/>
</svg>