<?xml version="1.0" encoding="UTF-8"?>
<svg id="Layer_1" data-name="Layer 1" xmlns="http://www.w3.org/2000/svg" viewBox="0 0 35.43 49.07">
  <defs>
    <style>
      .cls-1 {
        fill: #004c97;
      }

      .cls-1, .cls-2, .cls-3, .cls-4 {
        stroke-width: 0px;
      }

      .cls-3 {
        fill: #b3b3b3;
      }

      .cls-4 {
        fill: #fff;
      }
    </style>
  </defs>
  <path class="cls-1" d="M32.48,7.59v33.77c0,.39-.15.76-.43,1.04l-3.31,3.31c-.28.28-.65.43-1.04.43H7.72c-.39,0-.76-.16-1.04-.44l-3.31-3.31c-.27-.27-.43-.65-.43-1.04V7.58c0-.39.15-.76.43-1.04l3.17-3.17c.28-.28.65-.43,1.04-.43h20.26c.39,0,.76.16,1.04.44l3.17,3.17c.27.27.43.65.43,1.04Z"/>
  <path class="cls-4" d="M7.58,2.94h20.26c.39,0,.76.16,1.04.44l3.17,3.17c.27.27.43.65.43,1.04v33.77c0,.39-.15.76-.43,1.04l-3.31,3.31c-.27.27-.65.43-1.04.43H7.72c-.39,0-.76-.16-1.04-.44l-3.31-3.31c-.27-.27-.43-.65-.43-1.04V7.58c0-.39.15-.76.43-1.04l3.17-3.17c.27-.27.65-.43,1.04-.43M7.59,0h0c-1.18,0-2.29.46-3.12,1.29l-3.17,3.17c-.83.83-1.29,1.94-1.29,3.12v33.77c0,1.18.46,2.29,1.29,3.12l3.31,3.31c.83.83,1.94,1.29,3.12,1.29h19.99c1.18,0,2.29-.45,3.12-1.28l3.31-3.31c.83-.83,1.29-1.94,1.29-3.12V7.59c0-1.18-.46-2.29-1.29-3.12l-3.17-3.17C30.13.46,29.02,0,27.85,0H7.59Z"/>
  <rect class="cls-3" x="2.87" y="10.46" width="29.54" height="28.86"/>
  <path class="cls-2" d="M21.12,14.6v8.15h-1.54v-6.34l-.99.38v-1.63l1.22-.55h1.31Z"/>
  <path class="cls-2" d="M14.15,14.6v18.94h-3.57v-14.75l-2.31.87v-3.79l2.83-1.28h3.05Z"/>
  <path class="cls-2" d="M21.48,34.14v-1.38l2.8-3.68c.13-.16.23-.33.29-.51.07-.17.1-.34.1-.48h0c0-.23-.07-.4-.21-.52-.14-.12-.34-.18-.6-.18s-.45.08-.61.25c-.16.17-.26.4-.29.71h0s-1.57,0-1.57,0h0c.05-.78.3-1.38.74-1.8.44-.43,1.02-.64,1.72-.64.77,0,1.36.18,1.78.55.42.37.63.89.63,1.57h0c0,.38-.06.74-.19,1.11-.13.36-.31.69-.54.99l-2.01,2.53h2.78v1.48h-4.82Z"/>
  <rect class="cls-2" x="15.99" y="23.34" width="12.02" height="1.64" transform="translate(-10.59 21.86) rotate(-43.64)"/>
</svg>